<svg xmlns="http://www.w3.org/2000/svg" width="2400" height="2880" viewBox="0 0 2400 2880"><rect x="0" y="0" width="2400" height="2880" fill="#eeece6"/><text x="60" y="90" font-family="Source Code Pro" font-size="15" font-weight="600" fill="#525252" letter-spacing="1">REPORT 2 · FRAME 2 OF 4</text><text x="60" y="166" font-family="Anek Latin" font-size="56" font-weight="700" fill="#041222" letter-spacing="-1.6">AGENTIC BLUEPRINT</text><text x="60" y="212" font-family="Anek Latin" font-size="19" fill="#525252">How the system is put together: who does the work, what stops a mistake, and where the real work goes.</text><text x="60" y="242" font-family="Anek Latin" font-size="19" fill="#525252">Benchmarked against the Claude Code standard — agents with narrow tools, checks that run automatically, decisions written down.</text><line x1="60.0" y1="258.0" x2="2340.0" y2="258.0" stroke="#041222" stroke-width="2"/><g transform="translate(60,304)"><text x="0" y="34" font-family="Anek Latin" font-size="28" font-weight="700" fill="#041222" letter-spacing="-0.5">11 of the fourteen agents have done real work; 3 are waiting for a phase that has not happened</text><text x="0" y="64" font-family="Anek Latin" font-size="16" fill="#525252">How many times each agent was handed a task, counted from the session logs. 55 dispatches to these fourteen; 10 more went to general-purpose helpers that sit outside the roster.</text><text x="414" y="148" font-family="Anek Latin" font-size="16" fill="#041222" text-anchor="end">system-keeper</text><rect x="430" y="135" width="1760" height="18" fill="#041222"/><text x="2204" y="149" font-family="Source Code Pro" font-size="17" font-weight="600" fill="#041222">16</text><line x1="0.0" y1="167.0" x2="2280.0" y2="167.0" stroke="#e0e0e0" stroke-width="1"/><text x="414" y="188" font-family="Anek Latin" font-size="16" fill="#041222" text-anchor="end">dashboard-analyst</text><rect x="430" y="175" width="990" height="18" fill="#041222"/><text x="2204" y="189" font-family="Source Code Pro" font-size="17" font-weight="600" fill="#041222">9</text><line x1="0.0" y1="207.0" x2="2280.0" y2="207.0" stroke="#e0e0e0" stroke-width="1"/><text x="414" y="228" font-family="Anek Latin" font-size="16" fill="#041222" text-anchor="end">token-keeper</text><rect x="430" y="215" width="990" height="18" fill="#041222"/><text x="2204" y="229" font-family="Source Code Pro" font-size="17" font-weight="600" fill="#041222">9</text><line x1="0.0" y1="247.0" x2="2280.0" y2="247.0" stroke="#e0e0e0" stroke-width="1"/><text x="414" y="268" font-family="Anek Latin" font-size="16" fill="#041222" text-anchor="end">a11y-checker</text><rect x="430" y="255" width="550" height="18" fill="#041222"/><text x="2204" y="269" font-family="Source Code Pro" font-size="17" font-weight="600" fill="#041222">5</text><line x1="0.0" y1="287.0" x2="2280.0" y2="287.0" stroke="#e0e0e0" stroke-width="1"/><text x="414" y="308" font-family="Anek Latin" font-size="16" fill="#041222" text-anchor="end">research-synthesizer</text><rect x="430" y="295" width="440" height="18" fill="#041222"/><text x="2204" y="309" font-family="Source Code Pro" font-size="17" font-weight="600" fill="#041222">4</text><line x1="0.0" y1="327.0" x2="2280.0" y2="327.0" stroke="#e0e0e0" stroke-width="1"/><text x="414" y="348" font-family="Anek Latin" font-size="16" fill="#041222" text-anchor="end">orchestrator</text><rect x="430" y="335" width="440" height="18" fill="#041222"/><text x="2204" y="349" font-family="Source Code Pro" font-size="17" font-weight="600" fill="#041222">4</text><line x1="0.0" y1="367.0" x2="2280.0" y2="367.0" stroke="#e0e0e0" stroke-width="1"/><text x="414" y="388" font-family="Anek Latin" font-size="16" fill="#041222" text-anchor="end">design-critic</text><rect x="430" y="375" width="330" height="18" fill="#041222"/><text x="2204" y="389" font-family="Source Code Pro" font-size="17" font-weight="600" fill="#041222">3</text><line x1="0.0" y1="407.0" x2="2280.0" y2="407.0" stroke="#e0e0e0" stroke-width="1"/><text x="414" y="428" font-family="Anek Latin" font-size="16" fill="#041222" text-anchor="end">research-ops</text><rect x="430" y="415" width="220" height="18" fill="#041222"/><text x="2204" y="429" font-family="Source Code Pro" font-size="17" font-weight="600" fill="#041222">2</text><line x1="0.0" y1="447.0" x2="2280.0" y2="447.0" stroke="#e0e0e0" stroke-width="1"/><text x="414" y="468" font-family="Anek Latin" font-size="16" fill="#041222" text-anchor="end">screen-producer</text><rect x="430" y="455" width="110" height="18" fill="#041222"/><text x="2204" y="469" font-family="Source Code Pro" font-size="17" font-weight="600" fill="#041222">1</text><line x1="0.0" y1="487.0" x2="2280.0" y2="487.0" stroke="#e0e0e0" stroke-width="1"/><text x="414" y="508" font-family="Anek Latin" font-size="16" fill="#041222" text-anchor="end">content-comms</text><rect x="430" y="495" width="110" height="18" fill="#041222"/><text x="2204" y="509" font-family="Source Code Pro" font-size="17" font-weight="600" fill="#041222">1</text><line x1="0.0" y1="527.0" x2="2280.0" y2="527.0" stroke="#e0e0e0" stroke-width="1"/><text x="414" y="548" font-family="Anek Latin" font-size="16" fill="#041222" text-anchor="end">brand-director</text><rect x="430" y="535" width="110" height="18" fill="#041222"/><text x="2204" y="549" font-family="Source Code Pro" font-size="17" font-weight="600" fill="#041222">1</text><line x1="0.0" y1="567.0" x2="2280.0" y2="567.0" stroke="#e0e0e0" stroke-width="1"/><text x="414" y="588" font-family="Anek Latin" font-size="16" fill="#041222" text-anchor="end">diagram-cartographer</text><rect x="430" y="575" width="0" height="18" fill="#041222"/><text x="2204" y="589" font-family="Source Code Pro" font-size="17" font-weight="600" fill="#041222">0</text><line x1="0.0" y1="607.0" x2="2280.0" y2="607.0" stroke="#e0e0e0" stroke-width="1"/><text x="414" y="628" font-family="Anek Latin" font-size="16" fill="#041222" text-anchor="end">evidence-clerk</text><rect x="430" y="615" width="0" height="18" fill="#041222"/><text x="2204" y="629" font-family="Source Code Pro" font-size="17" font-weight="600" fill="#041222">0</text><line x1="0.0" y1="647.0" x2="2280.0" y2="647.0" stroke="#e0e0e0" stroke-width="1"/><text x="414" y="668" font-family="Anek Latin" font-size="16" fill="#041222" text-anchor="end">handoff-scribe</text><rect x="430" y="655" width="0" height="18" fill="#041222"/><text x="2204" y="669" font-family="Source Code Pro" font-size="17" font-weight="600" fill="#041222">0</text><line x1="0.0" y1="687.0" x2="2280.0" y2="687.0" stroke="#e0e0e0" stroke-width="1"/><text x="0" y="724" font-family="Anek Latin" font-size="16" font-weight="600" fill="#041222">3 of 14 have never been dispatched: diagram-cartographer, evidence-clerk, handoff-scribe.</text><text x="0" y="748" font-family="Anek Latin" font-size="16" fill="#525252">That is not idleness. Each belongs to a phase of the design process this project has not reached yet — there is no user research to log, and nothing has shipped to hand over.</text></g><g transform="translate(60,1122)"><text x="0" y="34" font-family="Anek Latin" font-size="28" font-weight="700" fill="#041222" letter-spacing="-0.5">Six ways to stop a mistake, ranked by how hard they are to ignore</text><text x="0" y="64" font-family="Anek Latin" font-size="16" fill="#525252">The rule of the system: never solve with a written rule what a permission can solve.</text><text x="0" y="104" font-family="Anek Latin" font-size="15" fill="#525252">Strongest at the top. Prose is the weakest layer, which is why only two rules live there.</text><line x1="0.0" y1="118.0" x2="2280.0" y2="118.0" stroke="#e0e0e0" stroke-width="1"/><text x="0" y="144" font-family="Anek Latin" font-size="19" font-weight="700" fill="#041222">1 · Impossible</text><text x="300" y="144" font-family="Anek Latin" font-size="16" fill="#041222">The agent is never given the tool</text><text x="1120" y="144" font-family="Source Code Pro" font-size="15" fill="#525252">.claude/settings.json</text><text x="2280" y="144" font-family="Anek Latin" font-size="15" fill="#041222" text-anchor="end">enforced by a machine</text><line x1="0.0" y1="172.0" x2="2280.0" y2="172.0" stroke="#e0e0e0" stroke-width="1"/><text x="0" y="198" font-family="Anek Latin" font-size="19" font-weight="700" fill="#041222">2 · Blocked</text><text x="300" y="198" font-family="Anek Latin" font-size="16" fill="#041222">The save is refused before it happens</text><text x="1120" y="198" font-family="Source Code Pro" font-size="15" fill="#525252">.claude/hooks/gate-b.py</text><text x="2280" y="198" font-family="Anek Latin" font-size="15" fill="#041222" text-anchor="end">enforced by a machine</text><line x1="0.0" y1="226.0" x2="2280.0" y2="226.0" stroke="#e0e0e0" stroke-width="1"/><text x="0" y="252" font-family="Anek Latin" font-size="19" font-weight="700" fill="#041222">2b · Backstop</text><text x="300" y="252" font-family="Anek Latin" font-size="16" fill="#041222">Catches writes that dodge layer 2</text><text x="1120" y="252" font-family="Source Code Pro" font-size="15" fill="#525252">.claude/hooks/session-check.py</text><text x="2280" y="252" font-family="Anek Latin" font-size="15" fill="#041222" text-anchor="end">enforced by a machine</text><line x1="0.0" y1="280.0" x2="2280.0" y2="280.0" stroke="#e0e0e0" stroke-width="1"/><text x="0" y="306" font-family="Anek Latin" font-size="19" font-weight="700" fill="#041222">3 · Failed</text><text x="300" y="306" font-family="Anek Latin" font-size="16" fill="#041222">The build goes red after the fact</text><text x="1120" y="306" font-family="Source Code Pro" font-size="15" fill="#525252">.github/workflows/ci.yml</text><text x="2280" y="306" font-family="Anek Latin" font-size="15" fill="#041222" text-anchor="end">enforced by a machine</text><line x1="0.0" y1="334.0" x2="2280.0" y2="334.0" stroke="#e0e0e0" stroke-width="1"/><text x="0" y="360" font-family="Anek Latin" font-size="19" font-weight="700" fill="#041222">4 · Visible</text><text x="300" y="360" font-family="Anek Latin" font-size="16" fill="#041222">Someone can see it went wrong</text><text x="1120" y="360" font-family="Source Code Pro" font-size="15" fill="#525252">validation/reports/</text><text x="2280" y="360" font-family="Anek Latin" font-size="15" fill="#041222" text-anchor="end">enforced by a machine</text><line x1="0.0" y1="388.0" x2="2280.0" y2="388.0" stroke="#e0e0e0" stroke-width="1"/><text x="0" y="414" font-family="Anek Latin" font-size="19" font-weight="700" fill="#041222">5 · Written</text><text x="300" y="414" font-family="Anek Latin" font-size="16" fill="#041222">A rule in prose, and nothing more</text><text x="1120" y="414" font-family="Source Code Pro" font-size="15" fill="#525252">CLAUDE.md — two prohibitions</text><text x="2280" y="414" font-family="Anek Latin" font-size="15" fill="#b03822" text-anchor="end">enforced by nobody</text><line x1="0.0" y1="442.0" x2="2280.0" y2="442.0" stroke="#6f6f6f" stroke-width="1"/><text x="0" y="476" font-family="Anek Latin" font-size="16" fill="#041222">Every layer names a real file. A layer that named nothing would read as coverage while protecting nothing — which is the exact failure this list was built to prevent.</text></g><g transform="translate(60,1668)"><text x="0" y="34" font-family="Anek Latin" font-size="28" font-weight="700" fill="#041222" letter-spacing="-0.5">What the agents actually spent their time doing</text><text x="0" y="64" font-family="Anek Latin" font-size="16" fill="#525252">The twelve most-used tools, counted from the session logs.</text><text x="414" y="148" font-family="Anek Latin" font-size="16" fill="#041222" text-anchor="end">Bash</text><rect x="430" y="135" width="1740" height="18" fill="#041222"/><text x="2184" y="149" font-family="Source Code Pro" font-size="17" font-weight="600" fill="#041222">1,475</text><line x1="0.0" y1="167.0" x2="2280.0" y2="167.0" stroke="#e0e0e0" stroke-width="1"/><text x="414" y="188" font-family="Anek Latin" font-size="16" fill="#041222" text-anchor="end">Edit</text><rect x="430" y="175" width="148.6" height="18" fill="#041222"/><text x="2184" y="189" font-family="Source Code Pro" font-size="17" font-weight="600" fill="#041222">126</text><line x1="0.0" y1="207.0" x2="2280.0" y2="207.0" stroke="#e0e0e0" stroke-width="1"/><text x="414" y="228" font-family="Anek Latin" font-size="16" fill="#041222" text-anchor="end">mcp__chrome-devtools__evaluate_script</text><rect x="430" y="215" width="136.8" height="18" fill="#041222"/><text x="2184" y="229" font-family="Source Code Pro" font-size="17" font-weight="600" fill="#041222">116</text><line x1="0.0" y1="247.0" x2="2280.0" y2="247.0" stroke="#e0e0e0" stroke-width="1"/><text x="414" y="268" font-family="Anek Latin" font-size="16" fill="#041222" text-anchor="end">mcp__figma-console__figma_execute</text><rect x="430" y="255" width="102.6" height="18" fill="#041222"/><text x="2184" y="269" font-family="Source Code Pro" font-size="17" font-weight="600" fill="#041222">87</text><line x1="0.0" y1="287.0" x2="2280.0" y2="287.0" stroke="#e0e0e0" stroke-width="1"/><text x="414" y="308" font-family="Anek Latin" font-size="16" fill="#041222" text-anchor="end">mcp__claude-in-chrome__javascript_tool</text><rect x="430" y="295" width="93.2" height="18" fill="#041222"/><text x="2184" y="309" font-family="Source Code Pro" font-size="17" font-weight="600" fill="#041222">79</text><line x1="0.0" y1="327.0" x2="2280.0" y2="327.0" stroke="#e0e0e0" stroke-width="1"/><text x="414" y="348" font-family="Anek Latin" font-size="16" fill="#041222" text-anchor="end">mcp__Claude_Browser__computer</text><rect x="430" y="335" width="76.7" height="18" fill="#041222"/><text x="2184" y="349" font-family="Source Code Pro" font-size="17" font-weight="600" fill="#041222">65</text><line x1="0.0" y1="367.0" x2="2280.0" y2="367.0" stroke="#e0e0e0" stroke-width="1"/><text x="414" y="388" font-family="Anek Latin" font-size="16" fill="#041222" text-anchor="end">Agent</text><rect x="430" y="375" width="76.7" height="18" fill="#041222"/><text x="2184" y="389" font-family="Source Code Pro" font-size="17" font-weight="600" fill="#041222">65</text><line x1="0.0" y1="407.0" x2="2280.0" y2="407.0" stroke="#e0e0e0" stroke-width="1"/><text x="414" y="428" font-family="Anek Latin" font-size="16" fill="#041222" text-anchor="end">Write</text><rect x="430" y="415" width="68.4" height="18" fill="#041222"/><text x="2184" y="429" font-family="Source Code Pro" font-size="17" font-weight="600" fill="#041222">58</text><line x1="0.0" y1="447.0" x2="2280.0" y2="447.0" stroke="#e0e0e0" stroke-width="1"/><text x="414" y="468" font-family="Anek Latin" font-size="16" fill="#041222" text-anchor="end">mcp__claude-in-chrome__navigate</text><rect x="430" y="455" width="51.9" height="18" fill="#041222"/><text x="2184" y="469" font-family="Source Code Pro" font-size="17" font-weight="600" fill="#041222">44</text><line x1="0.0" y1="487.0" x2="2280.0" y2="487.0" stroke="#e0e0e0" stroke-width="1"/><text x="414" y="508" font-family="Anek Latin" font-size="16" fill="#041222" text-anchor="end">Read</text><rect x="430" y="495" width="43.6" height="18" fill="#041222"/><text x="2184" y="509" font-family="Source Code Pro" font-size="17" font-weight="600" fill="#041222">37</text><line x1="0.0" y1="527.0" x2="2280.0" y2="527.0" stroke="#e0e0e0" stroke-width="1"/><text x="414" y="548" font-family="Anek Latin" font-size="16" fill="#041222" text-anchor="end">Artifact</text><rect x="430" y="535" width="41.3" height="18" fill="#041222"/><text x="2184" y="549" font-family="Source Code Pro" font-size="17" font-weight="600" fill="#041222">35</text><line x1="0.0" y1="567.0" x2="2280.0" y2="567.0" stroke="#e0e0e0" stroke-width="1"/><text x="414" y="588" font-family="Anek Latin" font-size="16" fill="#041222" text-anchor="end">SendUserFile</text><rect x="430" y="575" width="40.1" height="18" fill="#041222"/><text x="2184" y="589" font-family="Source Code Pro" font-size="17" font-weight="600" fill="#041222">34</text><line x1="0.0" y1="607.0" x2="2280.0" y2="607.0" stroke="#e0e0e0" stroke-width="1"/><text x="0" y="644" font-family="Anek Latin" font-size="16" fill="#041222">2,574 tool calls in total across 5,904 agent turns.</text></g><line x1="60.0" y1="2382.0" x2="2340.0" y2="2382.0" stroke="#041222" stroke-width="2"/><text x="60" y="2448" font-family="Anek Latin" font-size="26" font-weight="700" fill="#041222" letter-spacing="-0.6">What this means</text><rect x="60" y="2471" width="22" height="22" fill="#041222"/><text x="67" y="2488" font-family="Source Code Pro" font-size="13" font-weight="700" fill="#eeece6">1</text><text x="98" y="2489" font-family="Anek Latin" font-size="17" fill="#041222">11 of fourteen agents have done real work. The 3 idle ones</text><text x="98" y="2513" font-family="Anek Latin" font-size="17" fill="#041222">map to phases this project has not reached.</text><rect x="60" y="2537" width="22" height="22" fill="#041222"/><text x="67" y="2554" font-family="Source Code Pro" font-size="13" font-weight="700" fill="#eeece6">2</text><text x="98" y="2555" font-family="Anek Latin" font-size="17" fill="#041222">Every enforcement layer names a real file. The weakest layer,</text><text x="98" y="2579" font-family="Anek Latin" font-size="17" fill="#041222">prose, carries only two rules on purpose.</text><rect x="60" y="2603" width="22" height="22" fill="#041222"/><text x="67" y="2620" font-family="Source Code Pro" font-size="13" font-weight="700" fill="#eeece6">3</text><text x="98" y="2621" font-family="Anek Latin" font-size="17" fill="#041222">The busiest tools are reading and running things — the agents</text><text x="98" y="2645" font-family="Anek Latin" font-size="17" fill="#041222">spend most of their effort checking, not writing.</text><rect x="60" y="2669" width="22" height="22" fill="#041222"/><text x="67" y="2686" font-family="Source Code Pro" font-size="13" font-weight="700" fill="#eeece6">4</text><text x="98" y="2687" font-family="Anek Latin" font-size="17" fill="#041222">No agent holds a Figma tool. This board was written by the</text><text x="98" y="2711" font-family="Anek Latin" font-size="17" fill="#041222">main session, because the grant was never made.</text><text x="1230" y="2448" font-family="Anek Latin" font-size="26" font-weight="700" fill="#041222" letter-spacing="-0.6">What to do next</text><rect x="1230" y="2471" width="22" height="22" fill="#b03822"/><text x="1237" y="2488" font-family="Source Code Pro" font-size="13" font-weight="700" fill="#eeece6">1</text><text x="1268" y="2489" font-family="Anek Latin" font-size="17" fill="#041222">Make the ADR-007 Figma grant now that a real file exists, and</text><text x="1268" y="2513" font-family="Anek Latin" font-size="17" fill="#041222">test it rather than assume it.</text><rect x="1230" y="2537" width="22" height="22" fill="#b03822"/><text x="1237" y="2554" font-family="Source Code Pro" font-size="13" font-weight="700" fill="#eeece6">2</text><text x="1268" y="2555" font-family="Anek Latin" font-size="17" fill="#041222">Give the 3 unused agents their first real task, or retire</text><text x="1268" y="2579" font-family="Anek Latin" font-size="17" fill="#041222">them from the roster.</text><rect x="1230" y="2603" width="22" height="22" fill="#b03822"/><text x="1237" y="2620" font-family="Source Code Pro" font-size="13" font-weight="700" fill="#eeece6">3</text><text x="1268" y="2621" font-family="Anek Latin" font-size="17" fill="#041222">Keep the routing table as the single place that decides who</text><text x="1268" y="2645" font-family="Anek Latin" font-size="17" fill="#041222">does what — it already routed 55 dispatches to the roster.</text><rect x="1230" y="2669" width="22" height="22" fill="#b03822"/><text x="1237" y="2686" font-family="Source Code Pro" font-size="13" font-weight="700" fill="#eeece6">4</text><text x="1268" y="2687" font-family="Anek Latin" font-size="17" fill="#041222">Add a counter for the autonomy ladder, which is still</text><text x="1268" y="2711" font-family="Anek Latin" font-size="17" fill="#041222">declared but not operative.</text><line x1="60.0" y1="2778.0" x2="2340.0" y2="2778.0" stroke="#e0e0e0" stroke-width="1"/><text x="60" y="2826" font-family="Anek Latin" font-size="14" fill="#525252">CoForge · measured from the git history and the session logs, frozen at 2026-09-08 12:11 UTC (the last record in the corpus, not the time the script ran) · every transcript record counted once, keyed on message uuid · dollars are illustrative at Opus 5 list price and were never billed</text><text x="60" y="2848" font-family="Anek Latin" font-size="14" fill="#525252">The repository counts do not include this report: it was committed after the figures were frozen, so the artifact and commit totals here are one behind by construction.</text></svg>